# xmcd
#
# Track frame offsets: 
#        150
#        17185
#        32087
#        53062
#        68597
#        90152
#        102875
#        121212
#        137725
#        151895
#        167657
#        190620
#        202135
#        221117
#        237152
#        250417
#        264340
#        277542
#        293042
#        311045
#        327042
#        339965
#
# Disc length: 4772 seconds
#
# Revision: 0
# Processed by: cddbd v1.5.2PL0 Copyright (c) Steve Scherf et al.
# Submitted via: ExactAudioCopy v0.99pb4
#
DISCID=2b12a216
DTITLE=Geater Davis - Sadder Shades Of Blue
DYEAR=1998
DGENRE=Blues
TTITLE0=Your Heart Is So Cold
TTITLE1=I've Got To Pay The Price
TTITLE2=I Don't Worry (About Jody) pt.1
TTITLE3=A Whole Lot Of Man
TTITLE4=I'm Gonna Change
TTITLE5=Two That Sticks Together
TTITLE6=Don't Walk Off And Leave Me
TTITLE7=I'm So In Love With You
TTITLE8=I Know My Baby Loves Me
TTITLE9=I'll Meet You
TTITLE10=You Made Your Bed So hard
TTITLE11=Why Does It Hurt So Bad
TTITLE12=A Sad Shade Of Blue
TTITLE13=Will It Be Me Or Him pt.1
TTITLE14=Long Cold Winter
TTITLE15=Nice And Easy
TTITLE16=Strange Sensation
TTITLE17=There's Got To Be Some Changes MAde
TTITLE18=Tired Of Busting My Brain
TTITLE19=Ill Play The Blues For You
TTITLE20=I'll Get By
TTITLE21=Nice And Easy (alt. take)
EXTD=
EXTT0=
EXTT1=
EXTT2=
EXTT3=
EXTT4=
EXTT5=
EXTT6=
EXTT7=
EXTT8=
EXTT9=
EXTT10=
EXTT11=
EXTT12=
EXTT13=
EXTT14=
EXTT15=
EXTT16=
EXTT17=
EXTT18=
EXTT19=
EXTT20=
EXTT21=
PLAYORDER=
